<svg xmlns="http://www.w3.org/2000/svg" viewBox="0 0 1400 900">
  <!-- Background -->
  <rect width="1400" height="900" fill="#f8f9fa"/>

  <!-- Title -->
  <text x="700" y="40" font-family="Arial, sans-serif" font-size="28" font-weight="bold" text-anchor="middle" fill="#1a1a2e">
    UI Options Comparison: Link Grouping Strategies
  </text>

  <!-- Option 1: Dropdown -->
  <g id="option1" transform="translate(50, 80)">
    <rect x="0" y="0" width="400" height="750" rx="12" fill="#ffffff" stroke="#cbd5e0" stroke-width="2"/>

    <!-- Header -->
    <rect x="0" y="0" width="400" height="60" rx="12" fill="#3b82f6"/>
    <text x="200" y="35" font-family="Arial, sans-serif" font-size="18" font-weight="bold" text-anchor="middle" fill="#ffffff">Option 1: Dropdown Menu</text>

    <!-- Nav Preview -->
    <g transform="translate(20, 80)">
      <rect x="0" y="0" width="360" height="50" rx="6" fill="#16213e"/>

      <!-- Dropdown buttons -->
      <rect x="10" y="10" width="110" height="30" rx="4" fill="#2d3748"/>
      <text x="65" y="30" font-family="Arial, sans-serif" font-size="12" text-anchor="middle" fill="#ffffff">🎉 Celebration ▼</text>

      <rect x="130" y="10" width="90" height="30" rx="4" fill="#2d3748"/>
      <text x="175" y="30" font-family="Arial, sans-serif" font-size="12" text-anchor="middle" fill="#ffffff">🌿 Nature ▼</text>

      <rect x="230" y="10" width="110" height="30" rx="4" fill="#2d3748"/>
      <text x="285" y="30" font-family="Arial, sans-serif" font-size="12" text-anchor="middle" fill="#ffffff">✈️ Adventure ▼</text>

      <!-- Dropdown menu (open) -->
      <rect x="10" y="50" width="110" height="90" rx="4" fill="#ffffff" stroke="#cbd5e0" stroke-width="1"/>
      <text x="65" y="70" font-family="Arial, sans-serif" font-size="11" text-anchor="middle" fill="#1a1a2e">🎈 Balloons</text>
      <text x="65" y="95" font-family="Arial, sans-serif" font-size="11" text-anchor="middle" fill="#1a1a2e">🎉 Confetti</text>
      <text x="65" y="120" font-family="Arial, sans-serif" font-size="11" text-anchor="middle" fill="#1a1a2e">🎆 Fireworks</text>
    </g>

    <!-- Pros -->
    <g transform="translate(20, 180)">
      <text x="0" y="0" font-family="Arial, sans-serif" font-size="14" font-weight="bold" fill="#10b981">✓ Pros:</text>
      <text x="10" y="25" font-family="Arial, sans-serif" font-size="11" fill="#4a5568">• Clean, minimal visual clutter</text>
      <text x="10" y="45" font-family="Arial, sans-serif" font-size="11" fill="#4a5568">• Familiar dropdown pattern</text>
      <text x="10" y="65" font-family="Arial, sans-serif" font-size="11" fill="#4a5568">• Excellent for many links</text>
      <text x="10" y="85" font-family="Arial, sans-serif" font-size="11" fill="#4a5568">• Saves screen space</text>
    </g>

    <!-- Cons -->
    <g transform="translate(20, 280)">
      <text x="0" y="0" font-family="Arial, sans-serif" font-size="14" font-weight="bold" fill="#ef4444">✗ Cons:</text>
      <text x="10" y="25" font-family="Arial, sans-serif" font-size="11" fill="#4a5568">• Requires click/hover interaction</text>
      <text x="10" y="45" font-family="Arial, sans-serif" font-size="11" fill="#4a5568">• Links initially hidden</text>
      <text x="10" y="65" font-family="Arial, sans-serif" font-size="11" fill="#4a5568">• Medium complexity to build</text>
    </g>

    <!-- Metrics -->
    <g transform="translate(20, 370)">
      <text x="0" y="0" font-family="Arial, sans-serif" font-size="14" font-weight="bold" fill="#1a1a2e">Metrics:</text>

      <text x="10" y="30" font-family="Arial, sans-serif" font-size="11" fill="#4a5568">Discoverability:</text>
      <rect x="120" y="20" width="150" height="12" rx="6" fill="#e2e8f0"/>
      <rect x="120" y="20" width="105" height="12" rx="6" fill="#fbbf24"/>
      <text x="280" y="30" font-family="Arial, sans-serif" font-size="10" fill="#4a5568">70%</text>

      <text x="10" y="55" font-family="Arial, sans-serif" font-size="11" fill="#4a5568">Ease of Use:</text>
      <rect x="120" y="45" width="150" height="12" rx="6" fill="#e2e8f0"/>
      <rect x="120" y="45" width="120" height="12" rx="6" fill="#10b981"/>
      <text x="280" y="55" font-family="Arial, sans-serif" font-size="10" fill="#4a5568">80%</text>

      <text x="10" y="80" font-family="Arial, sans-serif" font-size="11" fill="#4a5568">Implementation:</text>
      <rect x="120" y="70" width="150" height="12" rx="6" fill="#e2e8f0"/>
      <rect x="120" y="70" width="90" height="12" rx="6" fill="#fbbf24"/>
      <text x="280" y="80" font-family="Arial, sans-serif" font-size="10" fill="#4a5568">60%</text>

      <text x="10" y="105" font-family="Arial, sans-serif" font-size="11" fill="#4a5568">Scalability:</text>
      <rect x="120" y="95" width="150" height="12" rx="6" fill="#e2e8f0"/>
      <rect x="120" y="95" width="135" height="12" rx="6" fill="#10b981"/>
      <text x="280" y="105" font-family="Arial, sans-serif" font-size="10" fill="#4a5568">90%</text>
    </g>

    <!-- Effort -->
    <g transform="translate(20, 510)">
      <rect x="0" y="0" width="360" height="50" rx="6" fill="#fef3c7" stroke="#fbbf24" stroke-width="2"/>
      <text x="180" y="20" font-family="Arial, sans-serif" font-size="12" font-weight="bold" text-anchor="middle" fill="#1a1a2e">Implementation Time</text>
      <text x="180" y="38" font-family="Arial, sans-serif" font-size="16" font-weight="bold" text-anchor="middle" fill="#92400e">13 hours</text>
    </g>

    <!-- Use Case -->
    <g transform="translate(20, 580)">
      <text x="0" y="0" font-family="Arial, sans-serif" font-size="13" font-weight="bold" fill="#1a1a2e">Best For:</text>
      <rect x="0" y="10" width="360" height="100" rx="6" fill="#f0f9ff" stroke="#3b82f6" stroke-width="1"/>
      <text x="180" y="35" font-family="Arial, sans-serif" font-size="11" text-anchor="middle" fill="#1e40af">• Sites with many link groups</text>
      <text x="180" y="55" font-family="Arial, sans-serif" font-size="11" text-anchor="middle" fill="#1e40af">• Professional/corporate feel</text>
      <text x="180" y="75" font-family="Arial, sans-serif" font-size="11" text-anchor="middle" fill="#1e40af">• When space is limited</text>
      <text x="180" y="95" font-family="Arial, sans-serif" font-size="11" text-anchor="middle" fill="#1e40af">• Desktop-first design</text>
    </g>
  </g>

  <!-- Option 2: Tabbed -->
  <g id="option2" transform="translate(480, 80)">
    <rect x="0" y="0" width="400" height="750" rx="12" fill="#ffffff" stroke="#cbd5e0" stroke-width="2"/>

    <!-- Header -->
    <rect x="0" y="0" width="400" height="60" rx="12" fill="#8b5cf6"/>
    <text x="200" y="35" font-family="Arial, sans-serif" font-size="18" font-weight="bold" text-anchor="middle" fill="#ffffff">Option 2: Tabbed Navigation</text>

    <!-- Nav Preview -->
    <g transform="translate(20, 80)">
      <!-- Tab bar -->
      <rect x="0" y="0" width="360" height="35" rx="6 6 0 0" fill="#e2e8f0"/>

      <!-- Active tab -->
      <rect x="10" y="5" width="110" height="30" rx="6 6 0 0" fill="#ff4757"/>
      <text x="65" y="25" font-family="Arial, sans-serif" font-size="12" font-weight="bold" text-anchor="middle" fill="#ffffff">🎉 Celebration</text>

      <!-- Inactive tabs -->
      <rect x="130" y="10" width="90" height="25" rx="6 6 0 0" fill="#cbd5e0"/>
      <text x="175" y="27" font-family="Arial, sans-serif" font-size="11" text-anchor="middle" fill="#4a5568">🌿 Nature</text>

      <rect x="230" y="10" width="110" height="25" rx="6 6 0 0" fill="#cbd5e0"/>
      <text x="285" y="27" font-family="Arial, sans-serif" font-size="11" text-anchor="middle" fill="#4a5568">✈️ Adventure</text>

      <!-- Content area -->
      <rect x="0" y="35" width="360" height="60" fill="#ffffff" stroke="#e2e8f0" stroke-width="1"/>

      <!-- Links in active tab -->
      <rect x="15" y="45" width="100" height="28" rx="4" fill="#ffe5e8" stroke="#ff4757" stroke-width="1"/>
      <text x="65" y="64" font-family="Arial, sans-serif" font-size="11" text-anchor="middle" fill="#1a1a2e">🎈 Balloons</text>

      <rect x="125" y="45" width="100" height="28" rx="4" fill="#ffe5e8" stroke="#ff4757" stroke-width="1"/>
      <text x="175" y="64" font-family="Arial, sans-serif" font-size="11" text-anchor="middle" fill="#1a1a2e">🎉 Confetti</text>

      <rect x="235" y="45" width="110" height="28" rx="4" fill="#ffe5e8" stroke="#ff4757" stroke-width="1"/>
      <text x="290" y="64" font-family="Arial, sans-serif" font-size="11" text-anchor="middle" fill="#1a1a2e">🎆 Fireworks</text>
    </g>

    <!-- Pros -->
    <g transform="translate(20, 205)">
      <text x="0" y="0" font-family="Arial, sans-serif" font-size="14" font-weight="bold" fill="#10b981">✓ Pros:</text>
      <text x="10" y="25" font-family="Arial, sans-serif" font-size="11" fill="#4a5568">• Modern, app-like interface</text>
      <text x="10" y="45" font-family="Arial, sans-serif" font-size="11" fill="#4a5568">• All group links visible at once</text>
      <text x="10" y="65" font-family="Arial, sans-serif" font-size="11" fill="#4a5568">• Clear visual separation</text>
      <text x="10" y="85" font-family="Arial, sans-serif" font-size="11" fill="#4a5568">• Great for showcasing themes</text>
    </g>

    <!-- Cons -->
    <g transform="translate(20, 305)">
      <text x="0" y="0" font-family="Arial, sans-serif" font-size="14" font-weight="bold" fill="#ef4444">✗ Cons:</text>
      <text x="10" y="25" font-family="Arial, sans-serif" font-size="11" fill="#4a5568">• Only one group visible initially</text>
      <text x="10" y="45" font-family="Arial, sans-serif" font-size="11" fill="#4a5568">• Uses more vertical space</text>
      <text x="10" y="65" font-family="Arial, sans-serif" font-size="11" fill="#4a5568">• Higher implementation complexity</text>
      <text x="10" y="85" font-family="Arial, sans-serif" font-size="11" fill="#4a5568">• Requires remembering tab location</text>
    </g>

    <!-- Metrics -->
    <g transform="translate(20, 405)">
      <text x="0" y="0" font-family="Arial, sans-serif" font-size="14" font-weight="bold" fill="#1a1a2e">Metrics:</text>

      <text x="10" y="30" font-family="Arial, sans-serif" font-size="11" fill="#4a5568">Discoverability:</text>
      <rect x="120" y="20" width="150" height="12" rx="6" fill="#e2e8f0"/>
      <rect x="120" y="20" width="112" height="12" rx="6" fill="#fbbf24"/>
      <text x="280" y="30" font-family="Arial, sans-serif" font-size="10" fill="#4a5568">75%</text>

      <text x="10" y="55" font-family="Arial, sans-serif" font-size="11" fill="#4a5568">Ease of Use:</text>
      <rect x="120" y="45" width="150" height="12" rx="6" fill="#e2e8f0"/>
      <rect x="120" y="45" width="127" height="12" rx="6" fill="#10b981"/>
      <text x="280" y="55" font-family="Arial, sans-serif" font-size="10" fill="#4a5568">85%</text>

      <text x="10" y="80" font-family="Arial, sans-serif" font-size="11" fill="#4a5568">Implementation:</text>
      <rect x="120" y="70" width="150" height="12" rx="6" fill="#e2e8f0"/>
      <rect x="120" y="70" width="75" height="12" rx="6" fill="#ef4444"/>
      <text x="280" y="80" font-family="Arial, sans-serif" font-size="10" fill="#4a5568">50%</text>

      <text x="10" y="105" font-family="Arial, sans-serif" font-size="11" fill="#4a5568">Scalability:</text>
      <rect x="120" y="95" width="150" height="12" rx="6" fill="#e2e8f0"/>
      <rect x="120" y="95" width="127" height="12" rx="6" fill="#10b981"/>
      <text x="280" y="105" font-family="Arial, sans-serif" font-size="10" fill="#4a5568">85%</text>
    </g>

    <!-- Effort -->
    <g transform="translate(20, 535)">
      <rect x="0" y="0" width="360" height="50" rx="6" fill="#fee2e2" stroke="#ef4444" stroke-width="2"/>
      <text x="180" y="20" font-family="Arial, sans-serif" font-size="12" font-weight="bold" text-anchor="middle" fill="#1a1a2e">Implementation Time</text>
      <text x="180" y="38" font-family="Arial, sans-serif" font-size="16" font-weight="bold" text-anchor="middle" fill="#991b1b">18 hours</text>
    </g>

    <!-- Use Case -->
    <g transform="translate(20, 605)">
      <text x="0" y="0" font-family="Arial, sans-serif" font-size="13" font-weight="bold" fill="#1a1a2e">Best For:</text>
      <rect x="0" y="10" width="360" height="100" rx="6" fill="#f5f3ff" stroke="#8b5cf6" stroke-width="1"/>
      <text x="180" y="35" font-family="Arial, sans-serif" font-size="11" text-anchor="middle" fill="#5b21b6">• Modern, trendy applications</text>
      <text x="180" y="55" font-family="Arial, sans-serif" font-size="11" text-anchor="middle" fill="#5b21b6">• When groups are equally important</text>
      <text x="180" y="75" font-family="Arial, sans-serif" font-size="11" text-anchor="middle" fill="#5b21b6">• Dashboard-style interfaces</text>
      <text x="180" y="95" font-family="Arial, sans-serif" font-size="11" text-anchor="middle" fill="#5b21b6">• Mobile-first design</text>
    </g>
  </g>

  <!-- Option 3: Grouped List -->
  <g id="option3" transform="translate(910, 80)">
    <rect x="0" y="0" width="400" height="750" rx="12" fill="#ffffff" stroke="#10b981" stroke-width="3"/>

    <!-- Header with star -->
    <rect x="0" y="0" width="400" height="60" rx="12" fill="#10b981"/>
    <text x="180" y="35" font-family="Arial, sans-serif" font-size="18" font-weight="bold" text-anchor="middle" fill="#ffffff">Option 3: Grouped List</text>
    <text x="360" y="40" font-family="Arial, sans-serif" font-size="24" text-anchor="middle" fill="#ffd700">⭐</text>

    <!-- Nav Preview -->
    <g transform="translate(20, 80)">
      <rect x="0" y="0" width="360" height="150" rx="6" fill="#16213e"/>

      <!-- Group 1 -->
      <text x="10" y="15" font-family="Arial, sans-serif" font-size="10" font-weight="bold" fill="#ff4757">🎉 CELEBRATION</text>
      <line x1="10" y1="20" x2="180" y2="20" stroke="#ff4757" stroke-width="1"/>

      <rect x="10" y="26" width="75" height="22" rx="3" fill="#2d3748" stroke="#ff4757" stroke-width="1"/>
      <text x="47" y="41" font-family="Arial, sans-serif" font-size="9" text-anchor="middle" fill="#ffffff">🎈 Balloons</text>

      <rect x="92" y="26" width="75" height="22" rx="3" fill="#2d3748" stroke="#ff4757" stroke-width="1"/>
      <text x="129" y="41" font-family="Arial, sans-serif" font-size="9" text-anchor="middle" fill="#ffffff">🎉 Confetti</text>

      <rect x="174" y="26" width="80" height="22" rx="3" fill="#2d3748" stroke="#ff4757" stroke-width="1"/>
      <text x="214" y="41" font-family="Arial, sans-serif" font-size="9" text-anchor="middle" fill="#ffffff">🎆 Fireworks</text>

      <!-- Group 2 -->
      <text x="10" y="67" font-family="Arial, sans-serif" font-size="10" font-weight="bold" fill="#00dfff">🌿 NATURE</text>
      <line x1="10" y1="72" x2="150" y2="72" stroke="#00dfff" stroke-width="1"/>

      <rect x="10" y="78" width="75" height="22" rx="3" fill="#2d3748" stroke="#00dfff" stroke-width="1"/>
      <text x="47" y="93" font-family="Arial, sans-serif" font-size="9" text-anchor="middle" fill="#ffffff">🌅 Sunrise</text>

      <rect x="92" y="78" width="70" height="22" rx="3" fill="#2d3748" stroke="#00dfff" stroke-width="1"/>
      <text x="127" y="93" font-family="Arial, sans-serif" font-size="9" text-anchor="middle" fill="#ffffff">☁️ Clouds</text>

      <rect x="169" y="78" width="70" height="22" rx="3" fill="#2d3748" stroke="#00dfff" stroke-width="1"/>
      <text x="204" y="93" font-family="Arial, sans-serif" font-size="9" text-anchor="middle" fill="#ffffff">🐠 Ocean</text>

      <!-- Group 3 -->
      <text x="10" y="119" font-family="Arial, sans-serif" font-size="10" font-weight="bold" fill="#ffd700">✈️ ADVENTURE</text>
      <line x1="10" y1="124" x2="160" y2="124" stroke="#ffd700" stroke-width="1"/>

      <rect x="10" y="130" width="70" height="22" rx="3" fill="#2d3748" stroke="#ffd700" stroke-width="1"/>
      <text x="45" y="145" font-family="Arial, sans-serif" font-size="9" text-anchor="middle" fill="#ffffff">✈️ Plane</text>

      <rect x="87" y="130" width="90" height="22" rx="3" fill="#2d3748" stroke="#ffd700" stroke-width="1"/>
      <text x="132" y="145" font-family="Arial, sans-serif" font-size="9" text-anchor="middle" fill="#ffffff">🌃 City Lights</text>
    </g>

    <!-- Pros -->
    <g transform="translate(20, 250)">
      <text x="0" y="0" font-family="Arial, sans-serif" font-size="14" font-weight="bold" fill="#10b981">✓ Pros:</text>
      <text x="10" y="25" font-family="Arial, sans-serif" font-size="11" fill="#4a5568">• ⭐ All options immediately visible</text>
      <text x="10" y="45" font-family="Arial, sans-serif" font-size="11" fill="#4a5568">• ⭐ Best discoverability (100%)</text>
      <text x="10" y="65" font-family="Arial, sans-serif" font-size="11" fill="#4a5568">• ⭐ Simplest to implement</text>
      <text x="10" y="85" font-family="Arial, sans-serif" font-size="11" fill="#4a5568">• ⭐ No learning curve</text>
      <text x="10" y="105" font-family="Arial, sans-serif" font-size="11" fill="#4a5568">• Clear visual hierarchy</text>
    </g>

    <!-- Cons -->
    <g transform="translate(20, 370)">
      <text x="0" y="0" font-family="Arial, sans-serif" font-size="14" font-weight="bold" fill="#ef4444">✗ Cons:</text>
      <text x="10" y="25" font-family="Arial, sans-serif" font-size="11" fill="#4a5568">• Uses more screen space</text>
      <text x="10" y="45" font-family="Arial, sans-serif" font-size="11" fill="#4a5568">• Mobile requires scrolling</text>
    </g>

    <!-- Metrics -->
    <g transform="translate(20, 440)">
      <text x="0" y="0" font-family="Arial, sans-serif" font-size="14" font-weight="bold" fill="#1a1a2e">Metrics:</text>

      <text x="10" y="30" font-family="Arial, sans-serif" font-size="11" fill="#4a5568">Discoverability:</text>
      <rect x="120" y="20" width="150" height="12" rx="6" fill="#e2e8f0"/>
      <rect x="120" y="20" width="150" height="12" rx="6" fill="#10b981"/>
      <text x="280" y="30" font-family="Arial, sans-serif" font-size="10" font-weight="bold" fill="#4a5568">100%</text>

      <text x="10" y="55" font-family="Arial, sans-serif" font-size="11" fill="#4a5568">Ease of Use:</text>
      <rect x="120" y="45" width="150" height="12" rx="6" fill="#e2e8f0"/>
      <rect x="120" y="45" width="142" height="12" rx="6" fill="#10b981"/>
      <text x="280" y="55" font-family="Arial, sans-serif" font-size="10" font-weight="bold" fill="#4a5568">95%</text>

      <text x="10" y="80" font-family="Arial, sans-serif" font-size="11" fill="#4a5568">Implementation:</text>
      <rect x="120" y="70" width="150" height="12" rx="6" fill="#e2e8f0"/>
      <rect x="120" y="70" width="142" height="12" rx="6" fill="#10b981"/>
      <text x="280" y="80" font-family="Arial, sans-serif" font-size="10" font-weight="bold" fill="#4a5568">95%</text>

      <text x="10" y="105" font-family="Arial, sans-serif" font-size="11" fill="#4a5568">Scalability:</text>
      <rect x="120" y="95" width="150" height="12" rx="6" fill="#e2e8f0"/>
      <rect x="120" y="95" width="112" height="12" rx="6" fill="#fbbf24"/>
      <text x="280" y="105" font-family="Arial, sans-serif" font-size="10" fill="#4a5568">75%</text>
    </g>

    <!-- Effort -->
    <g transform="translate(20, 570)">
      <rect x="0" y="0" width="360" height="50" rx="6" fill="#d1fae5" stroke="#10b981" stroke-width="2"/>
      <text x="180" y="20" font-family="Arial, sans-serif" font-size="12" font-weight="bold" text-anchor="middle" fill="#1a1a2e">Implementation Time</text>
      <text x="180" y="38" font-family="Arial, sans-serif" font-size="16" font-weight="bold" text-anchor="middle" fill="#065f46">8 hours</text>
    </g>

    <!-- Use Case -->
    <g transform="translate(20, 640)">
      <text x="0" y="0" font-family="Arial, sans-serif" font-size="13" font-weight="bold" fill="#1a1a2e">Best For:</text>
      <rect x="0" y="10" width="360" height="80" rx="6" fill="#ecfdf5" stroke="#10b981" stroke-width="2"/>
      <text x="180" y="32" font-family="Arial, sans-serif" font-size="11" text-anchor="middle" fill="#065f46">• ⭐ MVP / Quick implementation</text>
      <text x="180" y="50" font-family="Arial, sans-serif" font-size="11" text-anchor="middle" fill="#065f46">• ⭐ User-first design</text>
      <text x="180" y="68" font-family="Arial, sans-serif" font-size="11" text-anchor="middle" fill="#065f46">• ⭐ Maximum accessibility</text>
      <text x="180" y="86" font-family="Arial, sans-serif" font-size="11" text-anchor="middle" fill="#065f46">• Limited number of link groups</text>
    </g>
  </g>

  <!-- Bottom Recommendation Banner -->
  <rect x="50" y="850" width="1300" height="40" rx="8" fill="#10b981"/>
  <text x="700" y="875" font-family="Arial, sans-serif" font-size="18" font-weight="bold" text-anchor="middle" fill="#ffffff">
    ✓ RECOMMENDED: Option 3 - Best balance of usability, simplicity, and implementation speed
  </text>
</svg>